<svg xmlns="http://www.w3.org/2000/svg" width="24" height="24" viewBox="0 0 24 24">
  <g id="vuesax_linear_element-2" data-name="vuesax/linear/element-2" transform="translate(-556 -252)">
    <g id="element-2">
      <path id="Vector" d="M8.5,17.9V2.1C8.5.6,7.86,0,6.27,0H2.23C.64,0,0,.6,0,2.1V17.9C0,19.4.64,20,2.23,20H6.27C7.86,20,8.5,19.4,8.5,17.9Z" transform="translate(558 254)" fill="none" stroke="#292d32" stroke-linecap="round" stroke-linejoin="round" stroke-width="1.5"/>
      <path id="Vector-2" data-name="Vector" d="M8.5,6.52V1.98C8.5.57,7.86,0,6.27,0H2.23C.64,0,0,.57,0,1.98V6.51C0,7.93.64,8.49,2.23,8.49H6.27C7.86,8.5,8.5,7.93,8.5,6.52Z" transform="translate(569.5 254)" fill="none" stroke="#292d32" stroke-linecap="round" stroke-linejoin="round" stroke-width="1.5"/>
      <path id="Vector-3" data-name="Vector" d="M8.5,6.27V2.23C8.5.64,7.86,0,6.27,0H2.23C.64,0,0,.64,0,2.23V6.27C0,7.86.64,8.5,2.23,8.5H6.27C7.86,8.5,8.5,7.86,8.5,6.27Z" transform="translate(569.5 265.5)" fill="none" stroke="#292d32" stroke-linecap="round" stroke-linejoin="round" stroke-width="1.5"/>
      <path id="Vector-4" data-name="Vector" d="M0,0H24V24H0Z" transform="translate(556 252)" fill="none" opacity="0"/>
    </g>
  </g>
</svg>
