<svg xmlns="http://www.w3.org/2000/svg" width="24" height="24" viewBox="0 0 24 24">
  <g id="vuesax_linear_emoji-happy" data-name="vuesax/linear/emoji-happy" transform="translate(-428 -380)">
    <g id="emoji-happy">
      <path id="Vector" d="M7,20h6c5,0,7-2,7-7V7c0-5-2-7-7-7H7C2,0,0,2,0,7v6C0,18,2,20,7,20Z" transform="translate(430 382)" fill="none" stroke="#5c31d6" stroke-linecap="round" stroke-linejoin="round" stroke-width="1.5"/>
      <path id="Vector-2" data-name="Vector" d="M3,1.5A1.5,1.5,0,1,1,1.5,0,1.5,1.5,0,0,1,3,1.5Z" transform="translate(442 386.75)" fill="none" stroke="#5c31d6" stroke-linecap="round" stroke-linejoin="round" stroke-width="1.5"/>
      <path id="Vector-3" data-name="Vector" d="M3,1.5A1.5,1.5,0,1,1,1.5,0,1.5,1.5,0,0,1,3,1.5Z" transform="translate(435 386.75)" fill="none" stroke="#5c31d6" stroke-linecap="round" stroke-linejoin="round" stroke-width="1.5"/>
      <path id="Vector-4" data-name="Vector" d="M.9,0H8.1A.9.9,0,0,1,9,.9a4.5,4.5,0,1,1-9,0A.9.9,0,0,1,.9,0Z" transform="translate(435.5 393.3)" fill="none" stroke="#5c31d6" stroke-linecap="round" stroke-linejoin="round" stroke-width="1.5"/>
      <path id="Vector-5" data-name="Vector" d="M0,0H24V24H0Z" transform="translate(428 380)" fill="none" opacity="0"/>
    </g>
  </g>
</svg>
