<svg xmlns="http://www.w3.org/2000/svg" width="24" height="24" viewBox="0 0 24 24">
  <g id="vuesax_linear_folder-add" data-name="vuesax/linear/folder-add" transform="translate(-236 -188)">
    <g id="folder-add">
      <path id="Vector" d="M0,5V0" transform="translate(248.06 199.5)" fill="none" stroke="#5c31d6" stroke-linecap="round" stroke-linejoin="round" stroke-width="1.5"/>
      <path id="Vector-2" data-name="Vector" d="M5,0H0" transform="translate(245.5 202)" fill="none" stroke="#5c31d6" stroke-linecap="round" stroke-linejoin="round" stroke-width="1.5"/>
      <path id="Vector-3" data-name="Vector" d="M20,9v6c0,4-1,5-5,5H5c-4,0-5-1-5-5V5C0,1,1,0,5,0H6.5A2.362,2.362,0,0,1,8.9,1.2l1.5,2A1.585,1.585,0,0,0,12,4h3C19,4,20,5,20,9Z" transform="translate(238 190)" fill="none" stroke="#5c31d6" stroke-width="1.5"/>
      <path id="Vector-4" data-name="Vector" d="M0,0H24V24H0Z" transform="translate(260 212) rotate(180)" fill="none" opacity="0"/>
    </g>
  </g>
</svg>
