<svg xmlns="http://www.w3.org/2000/svg" width="20" height="20" viewBox="0 0 20 20">
  <g id="setting" transform="translate(-300 -188)">
    <g id="setting-2" transform="translate(300 188)">
      <path id="Vector" d="M5.106,2.553A2.553,2.553,0,1,1,2.553,0,2.553,2.553,0,0,1,5.106,2.553Z" transform="translate(7.447 7.447)" fill="none" stroke="#292d32" stroke-linecap="round" stroke-linejoin="round" stroke-width="1.5"/>
      <path id="Vector-2" data-name="Vector" d="M0,8.55V7.092A1.58,1.58,0,0,1,1.577,5.517c1.5,0,2.116-1.061,1.361-2.361A1.572,1.572,0,0,1,3.518,1.01L4.954.19a1.386,1.386,0,0,1,1.892.5l.091.157c.747,1.3,1.975,1.3,2.73,0L9.759.687a1.386,1.386,0,0,1,1.892-.5l1.436.82a1.572,1.572,0,0,1,.581,2.146c-.755,1.3-.141,2.361,1.361,2.361A1.58,1.58,0,0,1,16.6,7.092V8.55a1.58,1.58,0,0,1-1.577,1.574c-1.5,0-2.116,1.061-1.361,2.361a1.57,1.57,0,0,1-.581,2.146l-1.436.82a1.386,1.386,0,0,1-1.892-.5L9.667,14.8c-.747-1.3-1.975-1.3-2.73,0l-.091.157a1.386,1.386,0,0,1-1.892.5l-1.436-.82a1.572,1.572,0,0,1-.581-2.146c.755-1.3.141-2.361-1.361-2.361A1.58,1.58,0,0,1,0,8.55Z" transform="translate(1.702 2.179)" fill="none" stroke="#292d32" stroke-linecap="round" stroke-linejoin="round" stroke-width="1.5"/>
      <path id="Vector-3" data-name="Vector" d="M0,0H20V20H0Z" fill="none" opacity="0"/>
    </g>
  </g>
</svg>
