<svg xmlns="http://www.w3.org/2000/svg" width="20" height="20" viewBox="0 0 20 20">
  <g id="vuesax_linear_video" data-name="vuesax/linear/video" transform="translate(-108 -254)">
    <g id="video" transform="translate(108 254)">
      <path id="Vector" d="M8.775,14.033H3.508A3.21,3.21,0,0,1,0,10.525V3.508C0,.875.875,0,3.508,0H8.775c2.633,0,3.508.875,3.508,3.508v7.017C12.283,13.158,11.4,14.033,8.775,14.033Z" transform="translate(1.667 2.983)" fill="none" stroke="#292d32" stroke-linecap="round" stroke-linejoin="round" stroke-width="1.5"/>
      <path id="Vector-2" data-name="Vector" d="M2.317,8.889,0,7.264V2.005L2.317.38C3.45-.411,4.383.072,4.383,1.464v6.35C4.383,9.205,3.45,9.689,2.317,8.889Z" transform="translate(13.95 5.361)" fill="none" stroke="#292d32" stroke-linecap="round" stroke-linejoin="round" stroke-width="1.5"/>
      <path id="Vector-3" data-name="Vector" d="M2.5,1.25A1.25,1.25,0,1,1,1.25,0,1.25,1.25,0,0,1,2.5,1.25Z" transform="translate(8.333 6.667)" fill="none" stroke="#292d32" stroke-linecap="round" stroke-linejoin="round" stroke-width="1.5"/>
      <path id="Vector-4" data-name="Vector" d="M0,0H20V20H0Z" fill="none" opacity="0"/>
    </g>
  </g>
</svg>
