<svg xmlns="http://www.w3.org/2000/svg" width="79.512" height="100.226" viewBox="0 0 79.512 100.226">
  <g id="doc" transform="translate(-48.39)">
    <path id="Path_317" data-name="Path 317" d="M132.315,0H80.5a4.009,4.009,0,0,0-4.009,4.009V96.217a4.009,4.009,0,0,0,4.009,4.009h65.481a4.009,4.009,0,0,0,4.009-4.009V17.671Z" transform="translate(-22.084)" fill="#e1e6e9"/>
    <rect id="Rectangle_275" data-name="Rectangle 275" width="79.512" height="27.459" transform="translate(48.39 55.232)" fill="#27a2db"/>
    <g id="Group_430" data-name="Group 430" transform="translate(64.426 60.261)">
      <path id="Path_318" data-name="Path 318" d="M136.031,285.667a7.831,7.831,0,0,1,2.427,6.117,8.232,8.232,0,0,1-2.355,6.2q-2.356,2.284-7.21,2.284h-5.577v-16.8h5.768Q133.6,283.467,136.031,285.667Zm-.432,6.189q0-5.768-6.609-5.768h-2.836V297.6H129.3a6.778,6.778,0,0,0,4.675-1.454A5.463,5.463,0,0,0,135.6,291.855Z" transform="translate(-123.317 -283.059)" fill="#ebf0f3"/>
      <path id="Path_319" data-name="Path 319" d="M221.223,296.451a9.211,9.211,0,0,1-12.593,0,8.818,8.818,0,0,1,0-12.4,9.214,9.214,0,0,1,12.593,0,8.818,8.818,0,0,1,0,12.4Zm-2.077-10.515a5.895,5.895,0,0,0-8.438,0,6.278,6.278,0,0,0,0,8.629,5.893,5.893,0,0,0,8.438,0,6.278,6.278,0,0,0,0-8.629Z" transform="translate(-188.368 -281.562)" fill="#ebf0f3"/>
      <path id="Path_320" data-name="Path 320" d="M309.165,296.2a5.94,5.94,0,0,0,2.523-.492,8.742,8.742,0,0,0,2.212-1.575l1.825,1.875a8.406,8.406,0,0,1-6.476,2.957,8.683,8.683,0,0,1-6.322-2.452,8.91,8.91,0,0,1,.049-12.451,8.876,8.876,0,0,1,6.465-2.5,8.454,8.454,0,0,1,6.525,2.884l-1.8,1.971a7.9,7.9,0,0,0-2.273-1.611,6.359,6.359,0,0,0-2.512-.457A5.97,5.97,0,0,0,305.1,286a5.551,5.551,0,0,0-1.731,4.206,5.8,5.8,0,0,0,1.719,4.278A5.567,5.567,0,0,0,309.165,296.2Z" transform="translate(-262.513 -281.562)" fill="#ebf0f3"/>
    </g>
    <path id="Path_321" data-name="Path 321" d="M48.39,386.364l6.014,5.592v-5.592Z" transform="translate(0 -303.673)" fill="#2d93ba"/>
    <path id="Path_322" data-name="Path 322" d="M337.335,17.671h17.671L337.335,0Z" transform="translate(-227.104)" fill="#ebf0f3"/>
    <path id="Path_323" data-name="Path 323" d="M353.221,82.567l14.271,8.28v-8.28Z" transform="translate(-239.59 -64.896)" fill="#d5d6db"/>
  </g>
</svg>
