<svg xmlns="http://www.w3.org/2000/svg" width="124" height="97.284" viewBox="0 0 124 97.284">
  <g id="file-1" transform="translate(0 -50.447)">
    <path id="Path_335" data-name="Path 335" d="M7.818,50.447H37.474a5.43,5.43,0,0,1,4.705,2.72l4.881,6.668a5.43,5.43,0,0,0,4.705,2.72H124v76.126a7.24,7.24,0,0,1-7.239,7.239H7.239A7.24,7.24,0,0,1,0,138.682V71A54.325,54.325,0,0,1,2.563,54.51h0A5.43,5.43,0,0,1,7.818,50.447Z" fill="#f6c358"/>
    <rect id="Rectangle_276" data-name="Rectangle 276" width="95.315" height="40.264" transform="translate(11.284 61.31)" fill="#ebf0f3"/>
    <path id="Path_336" data-name="Path 336" d="M118.57,64.117H88.686a5.429,5.429,0,0,0-4.938,3.173L78.634,78.482A5.43,5.43,0,0,1,73.7,81.655H0v68.887a7.24,7.24,0,0,0,7.239,7.239H116.761A7.24,7.24,0,0,0,124,150.542v-81A5.43,5.43,0,0,0,118.57,64.117Z" transform="translate(0 -10.05)" fill="#fcd462"/>
  </g>
</svg>
