<svg xmlns="http://www.w3.org/2000/svg" width="86.919" height="110.284" viewBox="0 0 86.919 110.284">
  <g id="pdf" transform="translate(-49.607)">
    <path id="Path_347" data-name="Path 347" d="M125.6,0H76.216A4.411,4.411,0,0,0,71.8,4.411V105.872a4.411,4.411,0,0,0,4.411,4.411h67.641a4.411,4.411,0,0,0,4.411-4.411V22.664Z" transform="translate(-16.97)" fill="#e1e6e9"/>
    <path id="Path_348" data-name="Path 348" d="M300.248,22.665h22.664L300.248,0Z" transform="translate(-191.615 -0.001)" fill="#ebf0f3"/>
    <path id="Path_349" data-name="Path 349" d="M133.585,246.581H52.548a2.941,2.941,0,0,1-2.941-2.941V217.749a2.941,2.941,0,0,1,2.941-2.941h81.037a2.941,2.941,0,0,1,2.941,2.941V243.64A2.941,2.941,0,0,1,133.585,246.581Z" transform="translate(0 -164.22)" fill="#44c4a1"/>
    <g id="Group_433" data-name="Group 433" transform="translate(71.615 58.713)">
      <path id="Path_350" data-name="Path 350" d="M153.541,250.665a5.132,5.132,0,0,1,1.621,4.174,4.945,4.945,0,0,1-1.655,4.13,8.107,8.107,0,0,1-5.073,1.31H145.68v4.552h-2.62V249.31h5.329Q151.922,249.31,153.541,250.665Zm-1.854,6.406a3.426,3.426,0,0,0,.788-2.443,2.531,2.531,0,0,0-1-2.276,5.764,5.764,0,0,0-3.132-.666H145.68V257.9h3.041A4.056,4.056,0,0,0,151.687,257.072Z" transform="translate(-143.06 -249.31)" fill="#e1e6e9"/>
      <path id="Path_351" data-name="Path 351" d="M219.3,251.342a7.234,7.234,0,0,1,2.243,5.652,7.606,7.606,0,0,1-2.176,5.729q-2.177,2.11-6.661,2.11h-5.152V249.31h5.329A9.233,9.233,0,0,1,219.3,251.342Zm-.4,5.718q0-5.329-6.106-5.329h-2.62v10.637h2.91a6.262,6.262,0,0,0,4.319-1.344A5.048,5.048,0,0,0,218.9,257.06Z" transform="translate(-192.368 -249.31)" fill="#e1e6e9"/>
      <path id="Path_352" data-name="Path 352" d="M283.913,251.753v4.263H290.8v2.421h-6.883v6.4h-2.62V249.31h10.348l-.022,2.443h-7.706Z" transform="translate(-248.739 -249.31)" fill="#e1e6e9"/>
    </g>
  </g>
</svg>
