<?xml version="1.0" encoding="utf-8"?>
<!-- Generator: Adobe Illustrator 26.5.0, SVG Export Plug-In . SVG Version: 6.00 Build 0)  -->
<svg version="1.1" id="Layer_1" xmlns="http://www.w3.org/2000/svg" xmlns:xlink="http://www.w3.org/1999/xlink" x="0px" y="0px"
	 width="114px" height="43.2px" viewBox="0 0 114 43.2" style="enable-background:new 0 0 114 43.2;" xml:space="preserve">
<style type="text/css">
	.st0{fill:#4FCB8D;}
	.st1{opacity:0.47;enable-background:new    ;}
	.st2{fill:url(#Path_3_00000163758430006967801540000006189188383809386673_);}
	.st3{fill:#1765FD;}
</style>
<g id="Logo" transform="translate(-25.023 -52.988)">
	<g id="LOgo-2" transform="translate(-311.956 76.918) rotate(-45)">
		<g id="Ñëîé_1" transform="translate(238.714 236.72)">
			<path id="Path_1" class="st0" d="M30,28.1L26.5,21l-7,9.6l0.1,0.3h8.7c1,0,1.9-0.8,1.9-1.9C30.2,28.7,30.2,28.4,30,28.1z"/>
			
				<rect id="Rectangle_13" x="23.4" y="20.4" transform="matrix(-0.7986 -0.6018 0.6018 -0.7986 27.4202 61.31)" class="st1" width="1.1" height="11.4"/>
			
				<linearGradient id="Path_3_00000065036559843513850360000018344799798766625945_" gradientUnits="userSpaceOnUse" x1="-3437.0896" y1="-976.1738" x2="-3436.7827" y2="-976.8419" gradientTransform="matrix(23.3264 19.9039 23.3264 -19.9039 102959.2734 48992.0508)">
				<stop  offset="0" style="stop-color:#1765FD"/>
				<stop  offset="1" style="stop-color:#4FCB8D"/>
			</linearGradient>
			<path id="Path_3" style="fill:url(#Path_3_00000065036559843513850360000018344799798766625945_);" d="M11.5,29.3l2.7-3.5
				c0.3-0.4,0.5-0.7,0.8-1.1c0.2-0.4,0.5-0.8,0.7-1.2c0.1,0.2,0.1,0.4,0.2,0.6c0.1,0.5,0.3,0.9,0.5,1.4l1.4,3.1l7.1-9.6l-1.8-3.7
				L32.5,4c0.6-0.8,0.5-1.9-0.2-2.6C32,1.1,31.6,1,31.1,1h-9.3l-2.4,3.2c-0.4,0.5-0.7,1-1,1.5c-0.1,0.2-0.2,0.4-0.3,0.6
				C18,6,17.9,5.7,17.8,5.4c-0.2-0.5-0.4-1.1-0.6-1.6L16,1.2h-0.5l-6.8,9.2l2,3.9l-10.3,12c-0.6,0.8-0.5,1.9,0.2,2.6
				c0.3,0.3,0.8,0.4,1.2,0.4H11.5z"/>
			
				<rect id="Rectangle_25" x="12.1" y="0.5" transform="matrix(-0.7986 -0.6018 0.6018 -0.7986 19.0892 18.7562)" class="st1" width="1.1" height="11.4"/>
			<path id="Path_2" class="st3" d="M14-1H4C3-1,2.1-0.2,2.1,0.9c0,0.3,0.1,0.6,0.2,0.9l3.9,7.8L14-1z"/>
		</g>
	</g>
</g>
<g>
	<path d="M49.1,29.7h-3.4V15h11.1v2.7h-7.7V29.7z M48.9,21.6H56v2.7h-7.1V21.6z"/>
	<path d="M60.6,16.9c-0.6,0-1.1-0.2-1.5-0.5c-0.4-0.3-0.6-0.8-0.6-1.3c0-0.5,0.2-1,0.6-1.3c0.4-0.3,0.9-0.5,1.5-0.5
		c0.6,0,1.1,0.2,1.5,0.5c0.4,0.3,0.6,0.8,0.6,1.3c0,0.5-0.2,1-0.6,1.4C61.7,16.7,61.2,16.9,60.6,16.9z M58.9,29.7V18.4h3.3v11.3
		H58.9z"/>
	<path d="M65.3,29.7V14.1h3.3v15.6H65.3z"/>
	<path d="M71,21.2v-2.5h7.8v2.5H71z M77,29.9c-1.3,0-2.4-0.3-3.1-1c-0.7-0.7-1.1-1.7-1.1-3v-9.9h3.3v9.9c0,0.5,0.1,0.8,0.4,1.1
		c0.3,0.3,0.6,0.4,1,0.4c0.5,0,1-0.1,1.3-0.4l0.9,2.3c-0.3,0.2-0.7,0.4-1.2,0.5C78,29.8,77.5,29.9,77,29.9z"/>
	<path d="M86.8,29.9c-1.3,0-2.4-0.3-3.4-0.8c-1-0.5-1.7-1.2-2.3-2.1c-0.5-0.9-0.8-1.9-0.8-3c0-1.1,0.3-2.1,0.8-3
		c0.5-0.9,1.2-1.6,2.2-2.1c0.9-0.5,1.9-0.7,3.1-0.7c1.1,0,2.1,0.2,3,0.7c0.9,0.5,1.6,1.1,2.1,2c0.5,0.9,0.8,1.9,0.8,3.1
		c0,0.1,0,0.3,0,0.4c0,0.2,0,0.3,0,0.5H83v-1.9h7.5l-1.3,0.6c0-0.6-0.1-1.1-0.4-1.5c-0.2-0.4-0.6-0.8-1-1c-0.4-0.2-0.9-0.4-1.5-0.4
		s-1.1,0.1-1.5,0.4c-0.4,0.2-0.8,0.6-1,1c-0.2,0.4-0.4,1-0.4,1.6v0.5c0,0.6,0.1,1.2,0.4,1.6c0.3,0.5,0.7,0.8,1.2,1.1
		c0.5,0.2,1.1,0.4,1.8,0.4c0.6,0,1.1-0.1,1.6-0.3c0.5-0.2,0.9-0.5,1.2-0.8l1.7,1.9c-0.5,0.6-1.2,1-2,1.4S87.8,29.9,86.8,29.9z"/>
	<path d="M94.4,29.7V18.4h3.1v3.2l-0.4-0.9c0.3-0.8,0.9-1.4,1.6-1.8c0.7-0.4,1.6-0.6,2.7-0.6v3c-0.1,0-0.3,0-0.4,0
		c-0.1,0-0.2,0-0.4,0c-0.9,0-1.6,0.3-2.2,0.8s-0.8,1.3-0.8,2.4v5.3H94.4z"/>
	<path d="M102,29.7l5.1-6.6l-0.1,1.8l-4.9-6.5h3.7l3.1,4.2l-1.4,0l3.2-4.3h3.5l-4.9,6.4v-1.8l5,6.7h-3.7l-3.2-4.5l1.4,0.2l-3.2,4.3
		H102z"/>
</g>
</svg>
